<?xml version="1.0" encoding="utf-8"?>
<!-- Generator: Adobe Illustrator 24.1.3, SVG Export Plug-In . SVG Version: 6.00 Build 0)  -->
<svg version="1.1" id="Layer_1" xmlns="http://www.w3.org/2000/svg" xmlns:xlink="http://www.w3.org/1999/xlink" x="0px" y="0px"
	 viewBox="0 0 120 120" style="enable-background:new 0 0 120 120;" xml:space="preserve">
<style type="text/css">
	.st0{fill:#CF7028;}
	.st1{fill:url(#SVGID_1_);}
	.st2{display:none;}
	.st3{display:inline;}
	.st4{fill:#FFFFFF;}
</style>
<g id="Layer_1_2_">
	<path class="st0" d="M63.9,4.7c-22.8,0-41.4,18.6-41.4,41.7c0,12.3,5.4,23.4,13.8,30.9c10,9.4,18.2,21.5,22.5,35.1l-1.8,1.4
		l3.7,3.7c0.2,0.2,0.3,0.3,0.5,0.5c0.7,0.6,1.6,1,2.7,1c2.1,0,3.6-1.5,4.2-3.3C72,101,80.7,87.5,91.5,77.3
		c8.4-7.8,13.8-18.6,13.8-30.9C105.3,23.3,86.7,4.7,63.9,4.7z"/>
	<g id="Layer_1_1_">
		<g id="Layer_3">
			
				<linearGradient id="SVGID_1_" gradientUnits="userSpaceOnUse" x1="33.8232" y1="199.6917" x2="94.0072" y2="258.9639" gradientTransform="matrix(1 0 0 1 0 -175)">
				<stop  offset="0" style="stop-color:#FECF6E"/>
				<stop  offset="1" style="stop-color:#F79F28"/>
			</linearGradient>
			<path class="st1" d="M101.4,42.5c0-23.1-18.6-41.7-41.4-41.7S18.6,19.4,18.6,42.5c0,12.3,5.4,23.4,13.8,30.9l0,0
				c10.8,10.2,19.5,23.4,23.4,38.4l0,0c0.6,1.8,2.1,3.3,4.2,3.3c2.1,0,3.6-1.5,4.2-3.3l0,0c3.9-14.7,12.6-28.2,23.4-38.4l0,0
				C96,65.6,101.4,54.8,101.4,42.5z"/>
		</g>
	</g>
</g>
<g id="Layer_2_1_" class="st2">
	<g id="Layer_3_1_" class="st3">
		<g>
			<path class="st4" d="M57.3,52.7c-22.2,2.4-19.5-22.5-19.5-22.5l9,2.7C63.6,39.8,57.3,52.7,57.3,52.7z"/>
			<path class="st4" d="M62.7,52.7c0,0-6.3-12.9,10.5-19.5l9-2.7C82.2,30.2,84.6,55.1,62.7,52.7z"/>
			<path class="st4" d="M57.3,75.2c-22.2,2.4-19.5-22.5-19.5-22.5l9,2.7C63.6,62.3,57.3,75.2,57.3,75.2z"/>
			<path class="st4" d="M62.7,75.2c0,0-6.3-12.9,10.5-19.5l9-2.7C82.2,52.7,84.6,77.6,62.7,75.2z"/>
			<path class="st4" d="M60.3,35.6c0,0-12-4.8-4.8-19.5L60,8.9C60,8.9,76.5,23.9,60.3,35.6z"/>
		</g>
	</g>
</g>
<g>
	<path class="st4" d="M69.8,32.8c-0.9-1.1-2.1-2-3.4-2.6c-1.3-0.6-2.9-0.9-4.6-0.9c-1.8,0-3.4,0.3-4.9,1C55.3,31,54,32,52.9,33.2
		c-1.1,1.2-2,2.7-2.6,4.3c-0.6,1.7-0.9,3.5-0.9,5.5c0,2,0.3,3.8,0.9,5.5c0.6,1.7,1.5,3.1,2.6,4.3c1.1,1.2,2.3,2.2,3.8,2.9
		c1.5,0.7,3,1,4.7,1c1.9,0,3.6-0.4,5.1-1.2c1.5-0.8,2.7-1.9,3.7-3.4l7.8,5.8c-1.8,2.5-4.1,4.4-6.8,5.6s-5.6,1.8-8.5,1.8
		c-3.3,0-6.4-0.5-9.2-1.6c-2.8-1-5.2-2.5-7.3-4.5c-2-1.9-3.6-4.3-4.8-7s-1.7-5.8-1.7-9.2c0-3.4,0.6-6.5,1.7-9.2
		c1.1-2.8,2.7-5.1,4.8-7c2-1.9,4.5-3.4,7.3-4.5c2.8-1,5.9-1.6,9.2-1.6c1.2,0,2.5,0.1,3.8,0.3c1.3,0.2,2.6,0.6,3.8,1
		c1.3,0.5,2.5,1.1,3.6,1.9c1.2,0.8,2.2,1.8,3.1,2.9L69.8,32.8z"/>
</g>
</svg>
