<?xml version="1.0" encoding="utf-8"?>
<!-- Generator: Adobe Illustrator 24.2.3, SVG Export Plug-In . SVG Version: 6.00 Build 0)  -->
<svg version="1.1" id="Layer_2" xmlns="http://www.w3.org/2000/svg" xmlns:xlink="http://www.w3.org/1999/xlink" x="0px" y="0px"
	 viewBox="0 0 120 120" style="enable-background:new 0 0 120 120;" xml:space="preserve">
<style type="text/css">
	.st0{fill:#3A6731;}
	.st1{fill:url(#SVGID_1_);}
	.st2{fill:#FFFFFF;}
</style>
<path class="st0" d="M61.9,4.8c-11.4,0-20.7,9.3-20.7,20.9c0,6.1,2.7,11.7,6.9,15.5c5,4.7,9.1,10.8,11.2,17.5l-0.9,0.7l1.9,1.8
	c0.1,0.1,0.1,0.2,0.2,0.2c0.3,0.3,0.8,0.5,1.3,0.5c1,0,1.8-0.8,2.1-1.7c2-7.3,6.3-14.1,11.7-19.2c4.2-3.9,6.9-9.3,6.9-15.5
	C82.7,14.1,73.3,4.8,61.9,4.8z"/>
<g id="Layer_1_3_">
	<g id="Layer_3_3_">
		
			<linearGradient id="SVGID_1_" gradientUnits="userSpaceOnUse" x1="46.9116" y1="-67.7959" x2="77.0036" y2="-97.432" gradientTransform="matrix(1 0 0 -1 0 -53)">
			<stop  offset="0" style="stop-color:#A0CF68"/>
			<stop  offset="1" style="stop-color:#5D9841"/>
		</linearGradient>
		<path class="st1" d="M80.7,23.7c0-11.6-9.3-20.9-20.7-20.9s-20.7,9.3-20.7,20.9c0,6.1,2.7,11.7,6.9,15.5l0,0
			c5.4,5.1,9.8,11.7,11.7,19.2l0,0c0.3,0.9,1,1.7,2.1,1.7c1,0,1.8-0.8,2.1-1.7l0,0c2-7.3,6.3-14.1,11.7-19.2l0,0
			C78,35.2,80.7,29.8,80.7,23.7z"/>
	</g>
</g>
<g id="Layer_3_1_">
	<g>
		<path class="st2" d="M58.6,28.8c-11.1,1.2-9.8-11.2-9.8-11.2l4.5,1.4C61.8,22.3,58.6,28.8,58.6,28.8z"/>
		<path class="st2" d="M61.3,28.8c0,0-3.2-6.4,5.2-9.8l4.5-1.4C71.1,17.5,72.3,30,61.3,28.8z"/>
		<path class="st2" d="M58.6,40c-11.1,1.2-9.8-11.2-9.8-11.2l4.5,1.4C61.8,33.6,58.6,40,58.6,40z"/>
		<path class="st2" d="M61.3,40c0,0-3.2-6.5,5.2-9.8l4.5-1.4C71.1,28.8,72.3,41.2,61.3,40z"/>
		<path class="st2" d="M60.1,20.2c0,0-6-2.4-2.4-9.8L60,6.9C60,6.9,68.2,14.4,60.1,20.2z"/>
	</g>
</g>
</svg>
