<?xml version="1.0" encoding="utf-8"?>
<!-- Generator: Adobe Illustrator 24.2.3, SVG Export Plug-In . SVG Version: 6.00 Build 0)  -->
<svg version="1.1" id="Layer_1" xmlns="http://www.w3.org/2000/svg" xmlns:xlink="http://www.w3.org/1999/xlink" x="0px" y="0px"
	 viewBox="0 0 120 232" style="enable-background:new 0 0 120 232;" xml:space="preserve">
<style type="text/css">
	.st0{fill:#403C7F;}
	.st1{fill:url(#SVGID_1_);}
	.st2{display:none;}
	.st3{display:inline;}
	.st4{fill:#FFFFFF;}
</style>
<path class="st0" d="M63.9,4.7c-22.8,0-41.4,18.6-41.4,41.7c0,12.3,5.4,23.4,13.8,30.9c10,9.4,18.2,21.5,22.5,35.1l-1.8,1.4l3.7,3.7
	c0.2,0.2,0.3,0.3,0.5,0.5c0.7,0.6,1.6,1,2.7,1c2.1,0,3.6-1.5,4.2-3.3C72,101,80.7,87.5,91.5,77.3c8.4-7.8,13.8-18.6,13.8-30.9
	C105.3,23.3,86.7,4.7,63.9,4.7z"/>
<g id="Layer_1_1_">
	<g id="Layer_3">
		
			<linearGradient id="SVGID_1_" gradientUnits="userSpaceOnUse" x1="33.8232" y1="199.6917" x2="94.0072" y2="258.9639" gradientTransform="matrix(1 0 0 1 0 -175)">
			<stop  offset="0" style="stop-color:#918BF2"/>
			<stop  offset="1" style="stop-color:#605BB1"/>
		</linearGradient>
		<path class="st1" d="M101.4,42.5c0-23.1-18.6-41.7-41.4-41.7S18.6,19.4,18.6,42.5c0,12.3,5.4,23.4,13.8,30.9l0,0
			c10.8,10.2,19.5,23.4,23.4,38.4l0,0c0.6,1.8,2.1,3.3,4.2,3.3c2.1,0,3.6-1.5,4.2-3.3l0,0c3.9-14.7,12.6-28.2,23.4-38.4l0,0
			C96,65.6,101.4,54.8,101.4,42.5z"/>
	</g>
</g>
<g id="Layer_2_1_" class="st2">
	<g id="Layer_3_1_" class="st3">
		<g>
			<path class="st4" d="M57.3,52.7c-22.2,2.4-19.5-22.5-19.5-22.5l9,2.7C63.6,39.8,57.3,52.7,57.3,52.7z"/>
			<path class="st4" d="M62.7,52.7c0,0-6.3-12.9,10.5-19.5l9-2.7C82.2,30.2,84.6,55.1,62.7,52.7z"/>
			<path class="st4" d="M57.3,75.2c-22.2,2.4-19.5-22.5-19.5-22.5l9,2.7C63.6,62.3,57.3,75.2,57.3,75.2z"/>
			<path class="st4" d="M62.7,75.2c0,0-6.3-12.9,10.5-19.5l9-2.7C82.2,52.7,84.6,77.6,62.7,75.2z"/>
			<path class="st4" d="M60.3,35.6c0,0-12-4.8-4.8-19.5L60,8.9C60,8.9,76.5,23.9,60.3,35.6z"/>
		</g>
	</g>
</g>
<g id="Layer_3_3_">
	<g>
		<path class="st4" d="M57.3,52.7c-22.2,2.4-19.5-22.5-19.5-22.5l9,2.7C63.6,39.8,57.3,52.7,57.3,52.7z"/>
		<path class="st4" d="M62.7,52.7c0,0-6.3-12.9,10.5-19.5l9-2.7C82.2,30.2,84.6,55.1,62.7,52.7z"/>
		<path class="st4" d="M57.3,75.2c-22.2,2.4-19.5-22.5-19.5-22.5l9,2.7C63.6,62.3,57.3,75.2,57.3,75.2z"/>
		<path class="st4" d="M62.7,75.2c0,0-6.3-12.9,10.5-19.5l9-2.7C82.2,52.7,84.6,77.6,62.7,75.2z"/>
		<path class="st4" d="M60.3,35.6c0,0-12-4.8-4.8-19.5L60,8.9C60,8.9,76.5,23.9,60.3,35.6z"/>
	</g>
</g>
</svg>
