<?xml version="1.0" encoding="utf-8"?>
<!-- Generator: Adobe Illustrator 24.1.3, SVG Export Plug-In . SVG Version: 6.00 Build 0)  -->
<svg version="1.1" id="Layer_1" xmlns="http://www.w3.org/2000/svg" xmlns:xlink="http://www.w3.org/1999/xlink" x="0px" y="0px"
	 viewBox="0 0 120 120" style="enable-background:new 0 0 120 120;" xml:space="preserve">
<style type="text/css">
	.st0{fill:#045A84;}
	.st1{fill:url(#SVGID_1_);}
	.st2{fill:#FFFFFF;}
</style>
<path class="st0" d="M63.9,4.7c-22.8,0-41.4,18.6-41.4,41.7c0,12.3,5.4,23.4,13.8,30.9c10,9.4,18.2,21.5,22.5,35.1l-1.8,1.4l3.7,3.7
	c0.2,0.2,0.3,0.3,0.5,0.5c0.7,0.6,1.6,1,2.7,1c2.1,0,3.6-1.5,4.2-3.3C72,101,80.7,87.5,91.5,77.3c8.4-7.8,13.8-18.6,13.8-30.9
	C105.3,23.3,86.7,4.7,63.9,4.7z"/>
<g id="Layer_1_1_">
	<g id="Layer_3">
		
			<linearGradient id="SVGID_1_" gradientUnits="userSpaceOnUse" x1="33.8232" y1="199.6917" x2="94.0072" y2="258.9639" gradientTransform="matrix(1 0 0 1 0 -175)">
			<stop  offset="0" style="stop-color:#43C4DD"/>
			<stop  offset="0.9685" style="stop-color:#0983C6"/>
			<stop  offset="1" style="stop-color:#0781C5"/>
		</linearGradient>
		<path class="st1" d="M101.4,42.5c0-23.1-18.6-41.7-41.4-41.7S18.6,19.4,18.6,42.5c0,12.3,5.4,23.4,13.8,30.9l0,0
			c10.8,10.2,19.5,23.4,23.4,38.4l0,0c0.6,1.8,2.1,3.3,4.2,3.3c2.1,0,3.6-1.5,4.2-3.3l0,0c3.9-14.7,12.6-28.2,23.4-38.4l0,0
			C96,65.6,101.4,54.8,101.4,42.5z"/>
	</g>
</g>
<g>
	<path class="st2" d="M42.3,21.8h9.4v15.8h18.2V21.8h9.4v42.5h-9.4V45.9H51.7v18.4h-9.4V21.8z"/>
</g>
</svg>
