<?xml version="1.0" encoding="utf-8"?>
<!-- Generator: Adobe Illustrator 23.0.2, SVG Export Plug-In . SVG Version: 6.00 Build 0)  -->
<svg version="1.1" id="Layer_1" xmlns="http://www.w3.org/2000/svg" xmlns:xlink="http://www.w3.org/1999/xlink" x="0px" y="0px"
	 viewBox="0 0 44 44" style="enable-background:new 0 0 44 44;" xml:space="preserve">
<style type="text/css">
	.st0{fill:#716FB4;}
	.st1{fill:#FFFFFF;}
</style>
<rect class="st0" width="44" height="44"/>
<g>
	<rect x="8" y="19.9" class="st1" width="8" height="3"/>
	<rect x="8" y="25.9" class="st1" width="8" height="3"/>
	<rect x="8" y="13.9" class="st1" width="8" height="3"/>
	<rect x="19" y="13.9" class="st1" width="10" height="3"/>
	<polygon class="st1" points="33,5.9 11,5.9 8,5.9 8,8.9 8,10.9 11,10.9 11,8.9 33,8.9 33,34.9 11,34.9 11,31.9 8,31.9 8,34.9 
		8,37.9 11,37.9 36,37.9 36,35.9 36,34.9 36,8.9 36,5.9 	"/>
</g>
</svg>
