<?xml version="1.0" encoding="utf-8"?>
<!-- Generator: Adobe Illustrator 24.2.3, SVG Export Plug-In . SVG Version: 6.00 Build 0)  -->
<svg version="1.1" id="Layer_1" xmlns="http://www.w3.org/2000/svg" xmlns:xlink="http://www.w3.org/1999/xlink" x="0px" y="0px"
	 viewBox="0 0 120 120" style="enable-background:new 0 0 120 120;" xml:space="preserve">
<style type="text/css">
	.st0{fill:#B75A27;}
	.st1{fill:url(#SVGID_1_);}
	.st2{fill:#FFFFFF;}
</style>
<g id="Layer_1_2_">
	<path class="st0" d="M61.9,4.8c-11.4,0-20.7,9.3-20.7,20.9c0,6.1,2.7,11.7,6.9,15.5c5,4.7,9.1,10.8,11.2,17.5l-0.9,0.7l1.9,1.8
		c0.1,0.1,0.1,0.2,0.2,0.2c0.3,0.3,0.8,0.5,1.3,0.5c1,0,1.8-0.8,2.1-1.7c2-7.3,6.3-14.1,11.7-19.2c4.2-3.9,6.9-9.3,6.9-15.5
		C82.7,14.1,73.3,4.8,61.9,4.8z"/>
	<g id="Layer_1_1_">
		<g id="Layer_3">
			
				<linearGradient id="SVGID_1_" gradientUnits="userSpaceOnUse" x1="46.9116" y1="859.7958" x2="77.0036" y2="889.4319" gradientTransform="matrix(1 0 0 1 0 -845)">
				<stop  offset="0" style="stop-color:#FECF70"/>
				<stop  offset="1" style="stop-color:#F8A029"/>
			</linearGradient>
			<path class="st1" d="M80.7,23.7c0-11.6-9.3-20.9-20.7-20.9s-20.7,9.3-20.7,20.9c0,6.1,2.7,11.7,6.9,15.5l0,0
				c5.4,5.1,9.8,11.7,11.7,19.2l0,0c0.3,0.9,1,1.7,2.1,1.7c1,0,1.8-0.8,2.1-1.7l0,0c2-7.3,6.3-14.1,11.7-19.2l0,0
				C78,35.2,80.7,29.8,80.7,23.7z"/>
		</g>
	</g>
</g>
<g id="Layer_3_2_">
	<rect x="46.7" y="16.1" class="st2" width="26.9" height="2.8"/>
	<polygon class="st2" points="48,20.8 48,30.9 55.8,30.9 55.8,26.3 64.4,26.3 64.4,30.9 72.2,30.9 72.2,20.8 	"/>
</g>
</svg>
